<svg xmlns="http://www.w3.org/2000/svg" width="864" height="534" viewBox="0 0 864 534" xml:space="preserve"><style>:root{--bg:#0d1117;--fg:#e6edf3;--cur:#e6edf3;--c0:#484f58;--c1:#ff7b72;--c2:#3fb950;--c3:#d29922;--c4:#58a6ff;--c5:#bc8cff;--c6:#39c5cf;--c7:#b1bac4;--c8:#6e7681;--c9:#ffa198;--c10:#56d364;--c11:#e3b341;--c12:#79c0ff;--c13:#d2a8ff;--c14:#56d4dd;--c15:#f0f6fc;}text{font-family:"Cascadia Code","JetBrains Mono","Fira Code","SF Mono",Menlo,Consolas,"DejaVu Sans Mono",monospace;font-size:14px;white-space:pre;fill:var(--fg)}.cur{fill:var(--cur);opacity:.65}.b{font-weight:700}.i{font-style:italic}.u{text-decoration:underline}.d{opacity:.6}.f2{fill:var(--c2)}</style><rect width="864" height="534" fill="var(--bg)"/><rect class="cur" x="28.8" y="318" width="8.4" height="17"/><text x="12" y="25.4">$</text><text x="28.8" y="25.4" textLength="16.8">ls</text><text x="54" y="25.4" textLength="16.8">-a</text><text x="79.2" y="25.4" textLength="84">my-project</text><text x="12" y="42.4">.</text><text x="37.2" y="42.4" textLength="16.8">..</text><text x="70.8" y="42.4" textLength="75.6">debug.tmp</text><text x="163.2" y="42.4" textLength="33.6">docs</text><text x="213.6" y="42.4" textLength="33.6">.git</text><text x="264" y="42.4" textLength="67.2">leak.txt</text><text x="348" y="42.4" textLength="100.8">node_modules</text><text x="465.6" y="42.4" textLength="75.6">README.md</text><text x="558" y="42.4" textLength="25.2">src</text><text x="12" y="59.4">$</text><text x="28.8" y="59.4" textLength="84">url=$(r2fl</text><text x="121.2" y="59.4" textLength="16.8">up</text><text x="146.4" y="59.4" textLength="84">my-project</text><text x="238.8" y="59.4" textLength="75.6">--exclude</text><text x="322.8" y="59.4" textLength="58.8">'*.tmp'</text><text x="390" y="59.4" textLength="84">--no-copy)</text><text x="12" y="76.4" class="f2">✓</text><text x="28.8" y="76.4" textLength="117.6">my-project.zip</text><text x="154.8" y="76.4" textLength="25.2">(13</text><text x="188.4" y="76.4" textLength="25.2">KB)</text><text x="222" y="76.4">·</text><text x="238.8" y="76.4" textLength="58.8">expires</text><text x="306" y="76.4" textLength="42">17:19</text><text x="28.8" y="93.4" textLength="33.6">left</text><text x="70.8" y="93.4" textLength="25.2">out</text><text x="104.4" y="93.4">1</text><text x="121.2" y="93.4" textLength="84">symlink(s)</text><text x="213.6" y="93.4" textLength="33.6">that</text><text x="255.6" y="93.4" textLength="16.8">do</text><text x="280.8" y="93.4" textLength="25.2">not</text><text x="314.4" y="93.4" textLength="42">point</text><text x="364.8" y="93.4" textLength="16.8">to</text><text x="390" y="93.4">a</text><text x="406.8" y="93.4" textLength="33.6">file</text><text x="448.8" y="93.4" textLength="50.4">inside</text><text x="12" y="110.4">$</text><text x="28.8" y="110.4" textLength="33.6">echo</text><text x="70.8" y="110.4" textLength="33.6">$url</text><text x="12" y="127.4" textLength="252">http://localhost:8787/4buukSNv</text><text x="12" y="144.4">$</text><text x="28.8" y="144.4" textLength="33.6">curl</text><text x="70.8" y="144.4" textLength="16.8">-s</text><text x="96" y="144.4" textLength="33.6">$url</text><text x="138" y="144.4" textLength="16.8">-o</text><text x="163.2" y="144.4" textLength="50.4">dl.zip</text><text x="222" y="144.4" textLength="16.8">&amp;&amp;</text><text x="247.2" y="144.4" textLength="42">unzip</text><text x="297.6" y="144.4" textLength="16.8">-l</text><text x="322.8" y="144.4" textLength="50.4">dl.zip</text><text x="12" y="161.4" textLength="67.2">Archive:</text><text x="96" y="161.4" textLength="50.4">dl.zip</text><text x="28.8" y="178.4" textLength="50.4">Length</text><text x="129.6" y="178.4" textLength="33.6">Date</text><text x="196.8" y="178.4" textLength="33.6">Time</text><text x="264" y="178.4" textLength="33.6">Name</text><text x="12" y="195.4" textLength="75.6">---------</text><text x="104.4" y="195.4" textLength="84">----------</text><text x="196.8" y="195.4" textLength="42">-----</text><text x="264" y="195.4" textLength="33.6">----</text><text x="70.8" y="212.4" textLength="16.8">13</text><text x="104.4" y="212.4" textLength="84">2026-10-03</text><text x="196.8" y="212.4" textLength="42">16:18</text><text x="264" y="212.4" textLength="168">my-project/README.md</text><text x="79.2" y="229.4">3</text><text x="104.4" y="229.4" textLength="84">2026-10-03</text><text x="196.8" y="229.4" textLength="42">16:18</text><text x="264" y="229.4" textLength="201.6">my-project/docs/guide.md</text><text x="54" y="246.4" textLength="33.6">8893</text><text x="104.4" y="246.4" textLength="84">2026-10-03</text><text x="196.8" y="246.4" textLength="42">16:18</text><text x="264" y="246.4" textLength="184.8">my-project/src/mod1.ts</text><text x="54" y="263.4" textLength="33.6">8893</text><text x="104.4" y="263.4" textLength="84">2026-10-03</text><text x="196.8" y="263.4" textLength="42">16:18</text><text x="264" y="263.4" textLength="184.8">my-project/src/mod2.ts</text><text x="54" y="280.4" textLength="33.6">8893</text><text x="104.4" y="280.4" textLength="84">2026-10-03</text><text x="196.8" y="280.4" textLength="42">16:18</text><text x="264" y="280.4" textLength="184.8">my-project/src/mod3.ts</text><text x="12" y="297.4" textLength="75.6">---------</text><text x="264" y="297.4" textLength="58.8">-------</text><text x="45.6" y="314.4" textLength="42">26695</text><text x="264" y="314.4">5</text><text x="280.8" y="314.4" textLength="42">files</text><text x="12" y="331.4">$</text></svg>